<svg width="256" height="256" viewBox="0 0 256 256" fill="none" xmlns="http://www.w3.org/2000/svg">
<g clip-path="url(#clip0_1381_101428)">
<path d="M146.362 172.34C156.249 180.73 172.703 179.539 181.356 169.796C190.007 160.11 189.415 143.458 180.129 134.388C185.031 146.635 199.456 154.129 212.163 150.943C224.871 147.757 234.169 134.3 232.824 121.124C231.48 107.947 219.547 96.8033 206.443 96.3576C217.874 89.9184 223.981 75.1278 220.54 62.4052C217.042 49.6806 204.304 40.1434 191.23 40.5158C178.156 40.8882 165.962 51.0949 163.152 64.0718C173.229 54.9603 174.849 37.8578 166.661 27.0747C158.473 16.2916 141.7 13.2701 130.409 20.7062C119.118 28.1424 114.856 44.7465 121.271 56.6948C125.289 43.8757 116.67 28.7594 103.852 24.997C91.0334 21.2346 76.283 28.4364 70.3818 40.5495C64.4807 52.6625 67.3648 68.1674 76.4502 78.0473C68.356 67.9093 52.8586 64.7561 41.4401 70.8457C30.0216 76.9352 24.0296 91.7297 27.8843 104.175C31.7391 116.619 44.9089 125.354 57.7318 123.865C44.4355 118.86 28.3479 128.001 24.0137 141.626C19.6795 155.252 26.079 171.051 37.6483 179.265C49.2175 187.478 64.8996 188.595 78.3448 184.092C91.7901 179.589 103.154 169.996 111.729 159.141C113.777 166.914 118.849 174.148 126.195 177.374C133.541 180.6 143.081 178.765 147.751 172.271C152.366 165.717 150.134 154.844 146.362 172.34Z" fill="url(#paint0_radial_1381_101428)"/>
<path fill-rule="evenodd" clip-rule="evenodd" d="M27.5328 134.63C26.0355 136.769 24.8443 139.119 24.0494 141.62C19.7199 155.243 26.125 171.044 37.6973 179.261C49.2697 187.479 64.9524 188.601 78.3964 184.103C91.8405 179.604 103.201 170.016 111.773 159.164C113.823 166.938 118.898 174.173 126.245 177.402C133.307 180.505 142.395 178.933 147.235 173.042C157.194 180.698 172.991 179.317 181.405 169.843C187.789 162.696 189.134 151.75 185.664 142.859C192.395 149.841 202.775 153.364 212.207 151.002C224.913 147.821 234.207 134.368 232.858 121.191C231.508 108.015 219.572 96.8675 206.467 96.4172C217.896 89.9822 223.998 75.1944 220.553 62.4712C217.05 49.7459 204.308 40.2047 191.234 40.5724C189.298 40.6269 187.381 40.8971 185.511 41.3601C185.604 52.7255 179.978 64.2861 170.249 70.1258C163.158 74.3824 154.466 75.3353 146.457 73.4434C151.046 80.0277 153.298 88.3611 151.912 96.3281C149.184 112.015 133.941 124.057 118.154 124.063C103.141 124.069 89.0479 113.968 82.8545 100.183C87.8797 113.805 82.9927 130.672 71.2814 139.265C58.9422 148.319 40.2936 147.024 29.2403 136.41C28.6458 135.839 28.0765 135.245 27.5328 134.63Z" fill="url(#paint1_linear_1381_101428)"/>
<path d="M102.369 142.852C105.579 155.775 104.34 169.434 104.051 182.753C103.761 196.073 105.876 212.438 112.729 223.757C119.581 235.076 134.173 242.464 146.073 236.964C153.489 233.533 158.474 225.932 160.768 217.913C163.062 209.894 161.829 199.158 161.831 190.806C161.739 171.313 161.648 151.82 161.618 132.273C161.105 130.498 160.596 128.665 160.025 126.885C155.142 127.186 150.313 127.548 145.431 127.849C147.959 131.445 144.995 137.446 140.651 137.494C136.307 137.541 133.244 131.646 135.698 127.988C131.198 128.605 126.699 129.222 122.199 129.839C125.775 132.522 123.952 139.587 119.518 140.093C115.138 140.66 111.762 134.279 113.589 129.65C109.468 130.641 105.348 131.632 101.241 133.262C102.248 137.102 103.2 140.879 102.369 142.852Z" fill="url(#paint2_linear_1381_101428)"/>
<path opacity="0.5" fill-rule="evenodd" clip-rule="evenodd" d="M108.607 130.834C109.982 139.74 109.669 148.913 109.358 158.015C109.278 160.36 109.199 162.701 109.148 165.03C108.857 178.35 110.971 194.716 117.822 206.035C124.673 217.353 139.263 224.741 151.162 219.24C155.681 217.149 159.297 213.509 161.952 209.169C161.794 212.249 161.421 215.216 160.658 217.883C158.363 225.902 153.378 233.504 145.964 236.936C134.065 242.436 119.474 235.049 112.623 223.73C105.772 212.411 103.659 196.046 103.95 182.726C104 180.396 104.08 178.056 104.16 175.71C104.538 164.65 104.919 153.485 102.271 142.823C103.103 140.85 102.15 137.072 101.144 133.233C103.628 132.247 106.117 131.494 108.607 130.834Z" fill="url(#paint3_linear_1381_101428)"/>
<path d="M123.654 152.912C123.896 156.351 122.541 159.252 120.626 159.367C118.718 159.502 116.997 156.823 116.755 153.385C116.513 149.946 117.868 147.044 119.783 146.93C121.686 146.773 123.412 149.473 123.654 152.912Z" fill="url(#paint4_radial_1381_101428)"/>
<path d="M152.142 152.008C152.384 155.447 151.029 158.348 149.115 158.463C147.206 158.599 145.485 155.92 145.243 152.481C145.001 149.042 146.357 146.141 148.271 146.026C150.174 145.869 151.9 148.569 152.142 152.008Z" fill="url(#paint5_radial_1381_101428)"/>
<path d="M138.807 154.196C140.413 154.179 141.388 155.946 140.506 157.286C139.533 158.788 137.845 159.78 135.92 159.816C133.995 159.853 132.294 158.901 131.264 157.421C130.344 156.101 131.27 154.313 132.879 154.277C132.879 154.277 135.084 154.649 135.82 154.628C136.571 154.63 138.807 154.196 138.807 154.196Z" fill="#067044"/>
<path fill-rule="evenodd" clip-rule="evenodd" d="M139.187 158.699C138.277 159.382 137.147 159.793 135.92 159.816C134.027 159.851 132.351 158.932 131.316 157.495C132.226 156.811 133.356 156.401 134.583 156.378C136.476 156.342 138.153 157.262 139.187 158.699Z" fill="#9DE099" fill-opacity="0.46"/>
<ellipse cx="143.617" cy="76.5239" rx="19.4349" ry="19.4605" fill="#4FBE42"/>
<ellipse cx="182.776" cy="66.3576" rx="22.6257" ry="22.6555" fill="url(#paint6_radial_1381_101428)"/>
<ellipse cx="113.159" cy="82.6235" rx="41.1904" ry="41.2445" fill="url(#paint7_radial_1381_101428)"/>
<path fill-rule="evenodd" clip-rule="evenodd" d="M152.608 73.9102C152.449 96.5527 134.069 114.859 111.419 114.859C92.803 114.859 77.0714 102.493 71.9698 85.5173C71.9691 85.6158 71.9688 85.7145 71.9688 85.8132C71.9688 108.592 90.4103 127.058 113.159 127.058C135.908 127.058 154.349 108.592 154.349 85.8132C154.349 81.6749 153.741 77.6789 152.608 73.9102Z" fill="url(#paint8_linear_1381_101428)"/>
<path fill-rule="evenodd" clip-rule="evenodd" d="M165.706 138.076C162.672 139.036 159.441 139.553 156.09 139.553C144.339 139.553 134.072 133.193 128.534 123.723L139.742 122.191C137.289 125.847 140.355 131.743 144.701 131.697C149.048 131.65 152.011 125.652 149.48 122.055C151.923 121.906 154.352 121.741 156.781 121.576C159.21 121.411 161.639 121.246 164.082 121.097C164.533 122.501 164.946 123.939 165.353 125.355C165.461 125.734 165.569 126.11 165.678 126.484C165.685 130.35 165.695 134.214 165.706 138.076Z" fill="#35A328" fill-opacity="0.34"/>
<ellipse cx="156.09" cy="102.375" rx="31.908" ry="31.95" fill="url(#paint9_radial_1381_101428)"/>
<path fill-rule="evenodd" clip-rule="evenodd" d="M151.449 120.964C169.071 120.964 183.357 106.66 183.357 89.0142C183.357 87.8109 183.29 86.6231 183.161 85.4543C186.226 90.361 187.998 96.1608 187.998 102.375C187.998 120.021 173.712 134.325 156.09 134.325C139.669 134.325 126.146 121.905 124.378 105.935C130.016 114.961 140.032 120.964 151.449 120.964Z" fill="url(#paint10_linear_1381_101428)"/>
</g>
<defs>
<radialGradient id="paint0_radial_1381_101428" cx="0" cy="0" r="1" gradientUnits="userSpaceOnUse" gradientTransform="translate(48.5017 42.834) rotate(33.1651) scale(187.405 227.607)">
<stop stop-color="#60C454"/>
<stop offset="1" stop-color="#3FB830"/>
</radialGradient>
<linearGradient id="paint1_linear_1381_101428" x1="201.316" y1="170.045" x2="21.5772" y2="76.5813" gradientUnits="userSpaceOnUse">
<stop stop-color="#38A72A"/>
<stop offset="0.489583" stop-color="#2F9822"/>
<stop offset="1" stop-color="#7AD56F" stop-opacity="0"/>
</linearGradient>
<linearGradient id="paint2_linear_1381_101428" x1="131.114" y1="265.334" x2="167.742" y2="118.046" gradientUnits="userSpaceOnUse">
<stop stop-color="#BDEBB8"/>
<stop offset="0.564058" stop-color="#A4EF9B"/>
<stop offset="0.91699" stop-color="#7FD471"/>
</linearGradient>
<linearGradient id="paint3_linear_1381_101428" x1="163.878" y1="319.351" x2="114.389" y2="106.786" gradientUnits="userSpaceOnUse">
<stop offset="0.386392" stop-color="#A2E29E"/>
<stop offset="1" stop-color="#59C541"/>
</linearGradient>
<radialGradient id="paint4_radial_1381_101428" cx="0" cy="0" r="1" gradientUnits="userSpaceOnUse" gradientTransform="translate(120.204 153.142) rotate(-3.91131) scale(5.04108 5.04489)">
<stop offset="0.2083" stop-color="#077145"/>
<stop offset="1" stop-color="#05663E"/>
</radialGradient>
<radialGradient id="paint5_radial_1381_101428" cx="0" cy="0" r="1" gradientUnits="userSpaceOnUse" gradientTransform="translate(148.692 152.238) rotate(-3.91131) scale(5.04108 5.04489)">
<stop offset="0.2083" stop-color="#077145"/>
<stop offset="1" stop-color="#05663E"/>
</radialGradient>
<radialGradient id="paint6_radial_1381_101428" cx="0" cy="0" r="1" gradientUnits="userSpaceOnUse" gradientTransform="translate(170.303 47.7685) rotate(67.4394) scale(39.3155 39.279)">
<stop stop-color="#5ACA4C"/>
<stop offset="1" stop-color="#34A126"/>
</radialGradient>
<radialGradient id="paint7_radial_1381_101428" cx="0" cy="0" r="1" gradientUnits="userSpaceOnUse" gradientTransform="translate(83.5717 55.3207) rotate(40.9064) scale(74.0746 74.0885)">
<stop stop-color="#64D356"/>
<stop offset="1" stop-color="#51C143"/>
</radialGradient>
<linearGradient id="paint8_linear_1381_101428" x1="56.885" y1="58.5113" x2="128.645" y2="146.717" gradientUnits="userSpaceOnUse">
<stop stop-color="#68D55A"/>
<stop offset="1" stop-color="#35A328"/>
</linearGradient>
<radialGradient id="paint9_radial_1381_101428" cx="0" cy="0" r="1" gradientUnits="userSpaceOnUse" gradientTransform="translate(174.944 130.258) rotate(-110.956) scale(64.0718 64.0092)">
<stop stop-color="#3FB830"/>
<stop offset="1" stop-color="#61D154"/>
</radialGradient>
<linearGradient id="paint10_linear_1381_101428" x1="187.998" y1="91.3376" x2="92.7157" y2="196.939" gradientUnits="userSpaceOnUse">
<stop stop-color="#35A227"/>
<stop offset="1" stop-color="#81E275"/>
</linearGradient>
<clipPath id="clip0_1381_101428">
<rect width="256" height="256" fill="white"/>
</clipPath>
</defs>
</svg>
