<svg width="256" height="256" viewBox="0 0 256 256" fill="none" xmlns="http://www.w3.org/2000/svg">
<path d="M132.519 83.79C129.34 83.0839 127.423 79.9063 128.179 76.7287C129.977 69.4113 133.482 55.9947 138.047 41.6842C139.406 37.4237 144.04 35.1911 148.251 36.6974C152.371 38.1713 154.554 42.6842 152.952 46.7563C147.632 60.2759 141.236 72.3186 139.482 79.5028C138.675 82.63 135.597 84.4962 132.519 83.79Z" fill="url(#paint0_radial_1381_101444)"/>
<path fill-rule="evenodd" clip-rule="evenodd" d="M128.138 76.9154C128.772 77.3945 129.517 77.7486 130.349 77.9335C133.427 78.6396 136.505 76.7734 137.312 73.6462C138.343 69.4253 140.976 63.5272 144.052 56.6378C146.211 51.8012 148.588 46.4761 150.782 40.8997C151.074 40.1577 151.24 39.4011 151.292 38.6509C153.316 40.7411 154.091 43.8597 152.952 46.7554C150.758 52.3318 148.38 57.6569 146.221 62.4935C143.145 69.3829 140.512 75.2809 139.482 79.5019C138.674 82.6291 135.596 84.4953 132.519 83.7891C129.402 83.0969 127.498 80.0295 128.138 76.9154Z" fill="url(#paint1_radial_1381_101444)"/>
<path d="M187.103 73.2616C175.9 66.8939 164.112 69.236 152.47 72.8956C145.88 74.945 137.899 77.8726 131.09 75.2377C127.355 73.7739 125.598 70.6999 122.889 68.065C120.4 65.5765 117.471 63.3807 114.469 61.5509C103.12 54.2318 89.2813 51.5237 76.0285 53.7195C62.9955 55.842 48.3516 63.3807 40.9564 74.579C32.4629 87.4607 28.2162 102.758 27.2644 118.055C26.0928 135.328 28.9484 152.674 33.1951 169.435C34.8792 176.169 36.8561 182.902 40.0045 189.05C50.3285 209.398 74.4909 218.839 96.3103 214.301C112.272 211.008 127.722 221.767 143.024 224.402C146.612 224.987 150.639 225.426 154.227 225.061C158.034 224.695 161.329 222.133 164.404 219.864C171.58 214.667 177.73 208.153 183.002 201.054C202.625 174.778 220.344 136.938 210.02 103.636C206.359 91.9254 198.085 79.4828 187.103 73.2616Z" fill="url(#paint2_radial_1381_101444)"/>
<path fill-rule="evenodd" clip-rule="evenodd" d="M28.4324 145.699C29.4244 148.52 30.5638 151.278 31.9207 153.928C42.2447 174.275 66.4071 183.717 88.2265 179.179C98.4138 177.077 108.392 180.699 118.257 184.28C123.849 186.31 129.404 188.326 134.941 189.28C138.528 189.865 142.555 190.304 146.143 189.938C149.767 189.59 152.927 187.252 155.875 185.071C156.024 184.961 156.173 184.851 156.321 184.742C163.496 179.545 169.647 173.031 174.918 165.932C190.031 145.696 204.014 118.601 204.928 92.0022C207.086 95.7916 208.806 99.7538 210.02 103.636C220.344 136.938 202.625 174.778 183.002 201.053C177.73 208.153 171.58 214.667 164.404 219.864C164.256 219.973 164.107 220.083 163.958 220.193C161.01 222.374 157.851 224.712 154.227 225.06C150.639 225.426 146.612 224.987 143.024 224.401C137.488 223.448 131.932 221.432 126.341 219.402C116.476 215.821 106.497 212.199 96.3099 214.301C74.4905 218.839 50.3281 209.397 40.0041 189.05C36.8557 182.902 34.8787 176.168 33.1947 169.435C31.2167 161.628 29.5404 153.694 28.4324 145.699Z" fill="url(#paint3_linear_1381_101444)"/>
<path d="M94.9028 88.0277C94.9028 100.587 78.7061 118.29 66.1423 118.29C53.5785 118.29 47.4731 104.117 47.4731 91.5583C47.4731 78.9993 61.147 68.3569 73.7108 68.3569C86.2747 68.3569 94.9028 75.4687 94.9028 88.0277Z" fill="url(#paint4_radial_1381_101444)"/>
<path d="M122.471 204.157C121.901 208.53 116.754 204.795 107.857 203.636C98.9589 202.476 89.6791 204.331 90.2495 199.957C90.8199 195.584 98.4228 191.492 107.321 192.652C116.218 193.812 123.042 199.783 122.471 204.157Z" fill="url(#paint5_linear_1381_101444)"/>
<path d="M115.593 199.392C115.285 201.758 112.501 199.737 107.687 199.11C102.873 198.483 97.8532 199.486 98.1618 197.12C98.4704 194.754 102.583 192.541 107.397 193.168C112.211 193.795 115.902 197.026 115.593 199.392Z" fill="url(#paint6_linear_1381_101444)"/>
<path d="M114.766 125.662C112.4 125.336 110.659 127.794 111.698 129.927C112.873 132.312 115.157 134.098 118.016 134.485C120.842 134.868 123.547 133.799 125.33 131.815C126.92 130.04 125.868 127.203 123.536 126.881C123.536 126.881 120.209 127.038 119.127 126.87C117.979 126.695 114.766 125.662 114.766 125.662Z" fill="#661A39"/>
<path fill-rule="evenodd" clip-rule="evenodd" d="M125.254 131.898C124.033 130.703 122.431 129.875 120.591 129.625C117.805 129.247 115.136 130.281 113.353 132.212C114.575 133.407 116.177 134.236 118.017 134.485C120.803 134.862 123.471 133.829 125.254 131.898Z" fill="url(#paint7_linear_1381_101444)"/>
<path d="M141.802 138.452C144.652 138.656 147.26 134.66 147.627 129.527C147.994 124.394 145.982 120.068 143.132 119.865C140.282 119.661 137.675 123.657 137.307 128.79C136.94 133.923 138.953 138.249 141.802 138.452Z" fill="url(#paint8_radial_1381_101444)"/>
<path d="M94.9087 132.507C97.6334 133.366 101.097 130.084 102.646 125.177C104.194 120.269 103.241 115.594 100.516 114.735C97.7915 113.876 94.3275 117.158 92.7791 122.066C91.2306 126.974 92.1841 131.648 94.9087 132.507Z" fill="url(#paint9_radial_1381_101444)"/>
<path d="M202.157 56.382C195.27 52.7687 187.06 49.0013 180.102 52.4302C175.945 55.3465 169.454 58.8222 167.08 53.9069C166.76 53.2493 166.528 52.3677 166.35 51.3096C166.374 48.9621 170.554 42.6944 171.259 42.4085C179.515 34.2423 179.839 32.6815 188.087 29.4543C201.966 23.8583 222.33 26.9644 229.183 41.5887C230.328 45.4134 230.536 48.6424 230.017 51.2823C227.954 62.4249 213.799 63.8829 202.157 56.382Z" fill="url(#paint10_linear_1381_101444)"/>
<path d="M202.156 56.3829C195.27 52.7696 187.06 49.0021 180.101 52.4311C175.944 55.3473 169.454 58.8231 167.079 53.9078C174.555 46.3329 175.666 44.4724 184.471 41.0681C199.367 35.0501 220.64 37.585 230.03 51.3645C227.954 62.4259 213.798 63.8838 202.156 56.3829Z" fill="url(#paint11_linear_1381_101444)"/>
<defs>
<radialGradient id="paint0_radial_1381_101444" cx="0" cy="0" r="1" gradientUnits="userSpaceOnUse" gradientTransform="translate(166.842 25.8025) scale(70.8851 70.8579)">
<stop offset="0.3715" stop-color="#85575F"/>
<stop offset="1" stop-color="#5D3343"/>
</radialGradient>
<radialGradient id="paint1_radial_1381_101444" cx="0" cy="0" r="1" gradientUnits="userSpaceOnUse" gradientTransform="translate(150.74 35.0532) rotate(88.8423) scale(36.2381 36.2494)">
<stop stop-color="#85575F"/>
<stop offset="1" stop-color="#5D3343"/>
</radialGradient>
<radialGradient id="paint2_radial_1381_101444" cx="0" cy="0" r="1" gradientUnits="userSpaceOnUse" gradientTransform="translate(46.4583 75.3531) rotate(33.1124) scale(204.867 204.836)">
<stop stop-color="#FD7C6D"/>
<stop offset="1" stop-color="#F03E2D"/>
</radialGradient>
<linearGradient id="paint3_linear_1381_101444" x1="129.845" y1="79.335" x2="218.016" y2="187.3" gradientUnits="userSpaceOnUse">
<stop stop-color="#F03E2D" stop-opacity="0"/>
<stop offset="1" stop-color="#F03E2D"/>
</linearGradient>
<radialGradient id="paint4_radial_1381_101444" cx="0" cy="0" r="1" gradientUnits="userSpaceOnUse" gradientTransform="translate(40.3571 71.6849) rotate(40.4317) scale(71.6632 71.6588)">
<stop stop-color="#EFC3BE"/>
<stop offset="1" stop-color="#F76050" stop-opacity="0"/>
</radialGradient>
<linearGradient id="paint5_linear_1381_101444" x1="107.583" y1="192.686" x2="106.052" y2="204.429" gradientUnits="userSpaceOnUse">
<stop stop-color="#9A4645" stop-opacity="0.688844"/>
<stop offset="1" stop-color="#BA3528" stop-opacity="0.3"/>
</linearGradient>
<linearGradient id="paint6_linear_1381_101444" x1="107.539" y1="193.187" x2="106.711" y2="199.539" gradientUnits="userSpaceOnUse">
<stop stop-color="#6C404D"/>
<stop offset="1" stop-color="#BA3528" stop-opacity="0.3"/>
</linearGradient>
<linearGradient id="paint7_linear_1381_101444" x1="112.962" y1="115.333" x2="113.059" y2="115.607" gradientUnits="userSpaceOnUse">
<stop stop-color="#F75588"/>
<stop offset="1" stop-color="#F26161" stop-opacity="0.5"/>
</linearGradient>
<radialGradient id="paint8_radial_1381_101444" cx="0" cy="0" r="1" gradientUnits="userSpaceOnUse" gradientTransform="translate(142.451 129.147) rotate(4.08874) scale(7.53954 7.53938)">
<stop offset="0.2083" stop-color="#76203C"/>
<stop offset="1" stop-color="#661A39"/>
</radialGradient>
<radialGradient id="paint9_radial_1381_101444" cx="0" cy="0" r="1" gradientUnits="userSpaceOnUse" gradientTransform="translate(97.6998 123.607) rotate(17.4985) scale(7.53929 7.53962)">
<stop offset="0.2083" stop-color="#76203C"/>
<stop offset="1" stop-color="#661A39"/>
</radialGradient>
<linearGradient id="paint10_linear_1381_101444" x1="141.391" y1="95.6098" x2="220.439" y2="31.8932" gradientUnits="userSpaceOnUse">
<stop stop-color="#60C454"/>
<stop offset="1" stop-color="#83CF7A"/>
</linearGradient>
<linearGradient id="paint11_linear_1381_101444" x1="148.318" y1="50.6555" x2="232.143" y2="49.0778" gradientUnits="userSpaceOnUse">
<stop stop-color="#60C454"/>
<stop offset="1" stop-color="#3FB830"/>
</linearGradient>
</defs>
</svg>
